#!OML:ASF H:\Terrain\Patient Classification 1\Walking\liu\liu.ASF
:FULLY-SPECIFIED
:DEGREES
211
root 8.33032 16.5057 -7.87084 8.02144 0.0992145 -5.76998
lowerback -7.13788 2.38145 3.2314
upperback -0.881891 2.79721 3.76278
thorax 3.05436 1.41186 2.3506
lowerneck -16.0094 -6.48103 -14.5454
upperneck 14.841 -8.22255 14.9955
head 8.51353 -3.37244 6.49326
rclavicle -4.37326e-014 -1.11319e-014
rhumerus -36.9024 12.3182 -82.4905
rradius 53.1376
rwrist -27.207
rhand -32.5618 -28.7367
rfingers 7.12502
rthumb -5.79114 -58.6376
lclavicle -4.37326e-014 -1.11319e-014
lhumerus -50.7834 -11.0215 97.2238
lradius 26.7843
lwrist 9.87187
lhand -12.6626 -24.8796
lfingers 7.12502
lthumb 13.4184 4.66819
rfemur 10.2027 5.52875 31.4129
rtibia 1.90833e-014
rfoot -12.3628 5.48057
rtoes -7.94378
lfemur -43.9644 -3.02121 -10.4458
ltibia 20.6764
lfoot -17.0544 15.5005
ltoes -15.0271
212
root 8.34694 16.486 -7.72363 8.18098 -0.215262 -5.94503
lowerback -7.2822 2.42346 3.37825
upperback -0.95389 2.83611 3.75623
thorax 3.06717 1.43246 2.27056
lowerneck -15.7988 -6.4255 -14.5254
upperneck 14.7837 -8.17257 14.9991
head 8.44741 -3.35648 6.49905
rclavicle -4.09993e-015 1.59028e-015
rhumerus -37.1115 12.6753 -82.9269
rradius 53.1619
rwrist -27.2401
rhand -32.4548 -28.8815
rfingers 7.12502
rthumb -5.68784 -58.7852
lclavicle -4.09993e-015 1.59028e-015
lhumerus -50.9026 -9.92656 96.3758
lradius 26.6948
lwrist 8.03239
lhand -12.632 -24.7215
lfingers 7.12502
lthumb 13.4479 4.82443
rfemur 10.5667 5.68606 31.5306
rtibia 6.36111e-015
rfoot -12.6725 5.62887
rtoes -7.83295
lfemur -44.404 -3.24512 -9.80218
ltibia 20.3565
lfoot -17.4585 15.5848
ltoes -15.7951
213
root 8.36774 16.4682 -7.57306 8.34182 -0.482203 -6.24964
lowerback -7.37159 2.47565 3.62655
upperback -1.04492 2.88212 3.82579
thorax 3.03073 1.45705 2.21047
lowerneck -15.8555 -6.39844 -14.4653
upperneck 14.9629 -8.13905 14.8876
head 8.50328 -3.34383 6.45751
rclavicle 4.67144e-015 1.35174e-014
rhumerus -37.192 12.7661 -83.286
rradius 53.0374
rwrist -26.9935
rhand -32.3604 -29.6901
rfingers 7.12502
rthumb -5.59672 -59.5962
lclavicle 4.67144e-015 1.35174e-014
lhumerus -50.9806 -9.47652 96.0387
lradius 26.4843
lwrist 7.36521
lhand -14.8572 -29.6069
lfingers 7.12502
lthumb 11.3025 0.0685887
rfemur 10.9698 5.8195 31.7537
rtibia 3.49861e-014
rfoot -12.6622 5.86743
rtoes -7.9688
lfemur -44.7421 -2.87887 -9.49061
ltibia 20.0858
lfoot -17.5346 15.0743
ltoes -15.201
214
root 8.38754 16.4523 -7.42721 8.50179 -0.699848 -6.35283
lowerback -7.47241 2.52231 3.67613
upperback -1.08938 2.93502 3.85004
thorax 3.04152 1.48354 2.21706
lowerneck -15.9267 -6.36693 -14.4613
upperneck 15.0281 -8.08361 14.8392
head 8.5261 -3.31864 6.44829
rclavicle 2.31087e-015 2.38542e-015
rhumerus -37.3628 12.8233 -83.557
rradius 53.0739
rwrist -26.7261
rhand -32.2939 -30.4868
rfingers 7.12502
rthumb -5.53246 -60.3946
lclavicle 2.31087e-015 2.38542e-015
lhumerus -51.1095 -9.6047 96.1518
lradius 26.2945
lwrist 7.22684
lhand -19.5532 -42.4561
lfingers 7.12502
lthumb 6.77113 -12.5844
rfemur 11.3524 5.87987 31.7624
rtibia 3.49861e-014
rfoot -12.4295 6.08832
rtoes -8.43193
lfemur -45.1395 -2.76016 -9.36414
ltibia 20.0808
lfoot -17.3621 15.2106
ltoes -12.7165
215
root 8.39893 16.4365 -7.29499 8.61795 -0.999229 -6.43553
lowerback -7.40181 2.60668 3.65491
upperback -1.14714 3.05716 3.83469
thorax 2.94071 1.54346 2.21945
lowerneck -15.6045 -6.35248 -14.3388
upperneck 14.8069 -8.09593 14.7585
head 8.38715 -3.33859 6.39373
rclavicle -3.45637e-014 -4.29375e-014
rhumerus -37.8198 12.9676 -83.8205
rradius 53.4162
rwrist -26.7707
rhand -32.2009 -30.6568
rfingers 7.12502
rthumb -5.44271 -60.5669
lclavicle -3.45637e-014 -4.29375e-014
lhumerus -51.1841 -9.62675 96.0891
lradius 25.9977
lwrist 6.66134
lhand -19.8941 -44.0285
lfingers 7.12502
lthumb 6.44208 -14.1465
rfemur 11.7211 6.00185 31.7906
rtibia 0
rfoot -12.3924 6.24688
rtoes -9.07896
lfemur -45.5036 -2.62778 -9.19505
ltibia 20.1896
lfoot -17.0657 15.8799
ltoes -12.265
216
root 8.42455 16.4258 -7.12194 8.63278 -1.38875 -6.49292
lowerback -7.71586 2.73872 3.7199
upperback -1.02076 3.20019 3.81999
thorax 3.25008 1.61687 2.20497
lowerneck -15.3384 -6.34631 -14.3826
upperneck 14.4436 -8.09494 14.8708
head 8.22658 -3.34369 6.43525
rclavicle 1.62258e-014 4.53229e-014
rhumerus -38.1554 13.1094 -83.9967
rradius 53.7337
rwrist -26.8461
rhand -31.9261 -29.7329
rfingers 7.12502
rthumb -5.17733 -59.6497
lclavicle 1.62258e-014 4.53229e-014
lhumerus -51.024 -9.75164 96.1445
lradius 25.5284
lwrist 6.32305
lhand -18.9925 -41.7467
lfingers 7.12502
lthumb 7.31242 -11.8931
rfemur 12.3999 6.19824 31.7072
rtibia -2.22639e-014
rfoot -12.654 6.41789
rtoes -9.99736
lfemur -45.4693 -2.28896 -9.32408
ltibia 20.3101
lfoot -16.9597 16.2907
ltoes -17.5463
217
root 8.44732 16.4053 -6.9578 8.66718 -1.57004 -6.56732
lowerback -8.03609 2.77254 3.79881
upperback -0.882829 3.20958 3.81157
thorax 3.57706 1.62421 2.17708
lowerneck -15.1749 -6.26607 -14.6491
upperneck 14.1145 -7.9815 15.2601
head 8.10115 -3.28047 6.63024
rclavicle 5.64797e-014 4.69132e-014
rhumerus -38.2995 13.3165 -84.2773
rradius 53.8193
rwrist -26.8615
rhand -31.5384 -28.5135
rfingers 7.12502
rthumb -4.80298 -58.4391
lclavicle 5.64797e-014 4.69132e-014
lhumerus -50.8206 -9.69637 95.9845
lradius 25.1876
lwrist 5.75146
lhand -16.844 -36.978
lfingers 7.12502
lthumb 9.38584 -7.20702
rfemur 13.0026 6.19851 31.678
rtibia -4.45278e-014
rfoot -12.8046 6.5642
rtoes -11.2378
lfemur -45.5009 -1.76584 -9.62666
ltibia 20.4302
lfoot -16.5025 15.9762
ltoes -21.8105
218
root 8.46802 16.3802 -6.79939 8.7639 -1.77485 -6.66812
lowerback -8.12669 2.7453 3.8123
upperback -0.951594 3.16795 3.85071
thorax 3.55491 1.60295 2.208
lowerneck -15.1673 -6.1815 -14.7156
upperneck 14.3051 -7.86992 15.2612
head 8.14636 -3.2307 6.66291
rclavicle -1.72446e-014 -1.31198e-014
rhumerus -38.5333 13.6538 -84.6621
rradius 53.5823
rwrist -26.7213
rhand -31.5652 -28.7916
rfingers 7.12502
rthumb -4.82894 -58.7166
lclavicle -1.72446e-014 -1.31198e-014
lhumerus -51.0549 -9.39555 95.8689
lradius 25.0564
lwrist 5.2706
lhand -14.1896 -31.3445
lfingers 7.12502
lthumb 11.9463 -1.70541
rfemur 13.4885 6.2397 31.6562
rtibia 3.49861e-014
rfoot -12.6425 6.8084
rtoes -10.5082
lfemur -45.5793 -1.09111 -9.91535
ltibia 20.6582
lfoot -16.0837 15.2174
ltoes -18.9797
219
root 8.48875 16.351 -6.63764 8.80375 -2.07212 -6.79315
lowerback -8.03926 2.69732 3.74851
upperback -1.05345 3.1181 3.92935
thorax 3.39275 1.57588 2.31074
lowerneck -15.3491 -6.10226 -14.3695
upperneck 14.7201 -7.76329 14.7597
head 8.25945 -3.19434 6.44675
rclavicle 1.68967e-015 1.66979e-014
rhumerus -38.6887 13.9733 -85.0766
rradius 53.2
rwrist -26.4545
rhand -32.1812 -30.5316
rfingers 7.12502
rthumb -5.42371 -60.4422
lclavicle 1.68967e-015 1.66979e-014
lhumerus -51.3317 -9.16216 95.8594
lradius 24.8948
lwrist 4.96403
lhand -11.9784 -26.6264
lfingers 7.12502
lthumb 14.0778 2.87681
rfemur 14.0487 6.36083 31.6671
rtibia 1.27222e-014
rfoot -12.4551 6.99235
rtoes -8.89785
lfemur -45.5888 -0.314975 -10.1899
ltibia 20.917
lfoot -15.5113 14.5888
ltoes -13.3373
